<?xml version="1.0" encoding="UTF-8"?>
<svg width="122px" height="39px" viewBox="0 0 122 39" version="1.1" xmlns="http://www.w3.org/2000/svg" xmlns:xlink="http://www.w3.org/1999/xlink">
    <!-- Generator: Sketch 53.1 (72631) - https://sketchapp.com -->
    <title>AppBoss-Logo-New@3x</title>
    <desc>Created with Sketch.</desc>
    <g id="Page-1" stroke="none" stroke-width="1" fill="none" fill-rule="evenodd">
        <g id="AppBoss-Features-Community" transform="translate(-45.000000, -35.000000)" fill="#4CA7DB">
            <g id="Group-7">
                <g id="Group-4" transform="translate(45.000000, 35.000000)">
                    <g id="AppBoss-Logo-New">
                        <path d="M19.2903323,39 C8.63623905,39 0,30.2693537 0,19.499797 C0,8.73064629 8.63623905,0 19.2903323,0 C29.9448272,0 38.581468,8.73064629 38.581468,19.499797 C38.581468,30.2693537 29.9448272,39 19.2903323,39 Z M20.1406078,29.5565268 L20.1417183,29.705336 C20.1417183,29.705336 20.3735641,32.1307053 23.8818023,31.8218964 C24.1910554,31.7623201 24.258248,31.5826736 24.2581438,31.3574924 L24.2513207,28.7683456 C24.2636583,25.4996006 24.2397653,23.4582525 24.2370692,21.6119573 C24.2343732,19.765662 23.9863998,18.9104269 23.4270241,18.0920213 C22.9891113,17.4513246 22.2179991,17.1705424 21.5190931,17.2614806 C20.8201871,17.3524188 20.2716782,17.719992 19.9593754,18.2920481 C19.5928484,18.9634285 19.6593793,19.7925661 19.7990971,20.1491801 C19.9158463,20.4471693 20.0044204,20.7623427 20.0607334,21.0920696 C20.4951102,23.6373487 18.8608281,26.0800715 16.4188316,26.5375786 C13.9764448,26.9951588 11.6362373,25.297055 11.2014701,22.7518491 C11.0536451,21.8844656 11.1461331,21.0291394 11.4289632,20.2602732 C11.6435864,19.6768258 11.9811971,19.1588389 12.3798169,18.6918044 C12.6522075,18.3726636 12.8378179,18.191789 12.8378179,18.191789 C12.9638125,18.06257 13.0659755,17.8047062 13.0660035,17.626865 L13.0666107,13.7806668 C13.0666477,13.5461221 12.8838539,13.4230429 12.6694276,13.5042481 C12.6694276,13.5042481 12.3817103,13.6016107 12.0992824,13.7452753 C11.773842,13.9108195 11.5272353,13.9974875 10.8800964,14.4465363 C9.94174184,15.0976592 9.14073841,15.9314282 8.51565985,16.8901963 C7.2946052,18.7630941 6.74486844,21.1129805 7.15398589,23.5101436 C7.98487195,28.3809577 12.4638243,31.6318825 17.1389828,30.7559934 C18.2350707,30.5506417 19.2455238,30.1336763 20.1406078,29.5565268 Z M18.4292307,11.8248166 L18.4301602,11.0373516 C18.4301602,11.0373516 18.5793325,6.70245714 14.6903495,7.18894896 C14.3810965,7.24852521 14.3139039,7.42817172 14.3140081,7.65335293 L14.3185179,12.6129977 C14.3061802,15.8817428 14.3300732,17.9230908 14.3327693,19.7693861 C14.3354653,21.6156814 14.5834387,22.4709165 15.1428145,23.289322 C15.5807272,23.9300188 16.3518394,24.2108009 17.0507454,24.1198627 C17.7496514,24.0289246 18.2981604,23.6613513 18.6104632,23.0892952 C18.9769902,22.4179148 18.9104592,21.5887773 18.7707414,21.2321632 C18.6539922,20.9341741 18.5654181,20.6190007 18.5091051,20.2892738 C18.0747283,17.7439947 19.7090105,15.3012718 22.1510069,14.8437647 C24.5933937,14.3861845 26.9336013,16.0842883 27.3683684,18.6294943 C27.5161935,19.4968777 27.4237055,20.352204 27.1408753,21.1210702 C26.9262521,21.7045176 26.5886414,22.2225045 26.1900216,22.689539 C25.9176311,23.0086797 25.7320207,23.1895543 25.7320207,23.1895543 C25.606026,23.3187733 25.5038631,23.5766371 25.503835,23.7544783 L25.5032279,27.6006765 C25.5031908,27.8352212 25.6859846,27.9583004 25.9004109,27.8770952 C25.9004109,27.8770952 26.1881282,27.7797326 26.4705561,27.636068 C26.7959965,27.4705239 27.0426032,27.3838558 27.6897421,26.934807 C28.6280967,26.2836841 29.4291001,25.4499151 30.0541787,24.491147 C31.2752333,22.6182492 31.8249701,20.2683628 31.4158526,17.8711997 C30.5849666,13.0003856 26.1060142,9.74946088 21.4308557,10.62535 C20.3347678,10.8307016 19.3243147,11.2476671 18.4292307,11.8248166 Z" id="Combined-Shape"></path>
                        <g id="Group-2" transform="translate(45.011713, 10.400000)">
                            <path d="M4.71346649,6.09045979 C3.84557898,6.09045979 2.97819284,6.4102866 2.64277011,6.63080412 L2.64277011,11.3584351 C2.95863905,11.6390474 3.84557898,11.9797546 4.5560334,11.9797546 C5.8375588,11.9797546 6.54801322,11.2387546 6.64628356,9.9365299 C6.6863939,9.39516701 6.66684011,8.49374433 6.64628356,8.05321856 C6.56756701,6.81108866 5.9754381,6.09045979 4.71346649,6.09045979 Z M4.61519615,14.5439711 C2.60366253,14.5439711 1.04537577,13.6827814 0.472800648,13.2819794 C0.117824128,13.0416 0,12.7808495 0,12.3403237 L0,4.84884811 C0,4.06710584 0.572073743,3.46666667 1.32163575,3.46666667 C1.80381554,3.46666667 2.22540426,3.7286246 2.45608022,4.13175939 C2.55467869,4.06676776 2.64277011,4.02635464 2.64277011,4.02635464 C3.23439765,3.7661134 4.1810017,3.52522474 4.96967129,3.52522474 C7.57283244,3.52522474 9.05340542,5.12843299 9.28855229,7.61218351 C9.34921919,8.35369278 9.34921919,9.65540825 9.28855229,10.3775649 C9.07195645,12.8210825 7.3562366,14.5439711 4.61519615,14.5439711 Z" id="Fill-6-Copy" transform="translate(4.667026, 9.005319) scale(-1, -1) translate(-4.667026, -9.005319) "></path>
                            <path d="M16.3523341,15.4464213 C17.0427334,15.4464213 17.9507312,15.1057141 18.2655974,14.8251017 L18.2655974,10.0974708 C17.9296733,9.87695326 17.0622872,9.55712646 16.194901,9.55712646 C14.9314253,9.55712646 14.3408005,10.2777553 14.2615826,11.5000234 C14.222475,11.960411 14.222475,12.9020667 14.2615826,13.4429203 C14.3408005,14.745145 15.0703073,15.4464213 16.3523341,15.4464213 M15.9381948,6.99189141 C16.7273658,6.99189141 17.6734685,7.23278007 18.2655974,7.49302131 L18.2655974,4.84884811 C18.2655974,4.06710584 18.8572249,3.46666667 19.5867318,3.46666667 C20.3367951,3.46666667 20.9088689,4.06710584 20.9088689,4.84884811 L20.9088689,15.8268522 C20.9088689,16.2678873 20.7905434,16.5281285 20.4350655,16.7690172 C19.8825455,17.16931 18.3052064,18.0106378 16.29267,18.0106378 C13.5516295,18.0106378 11.8359097,16.2877491 11.6188125,13.8442316 C11.5596497,13.1429553 11.5596497,11.8004976 11.6188125,11.0788502 C11.8359097,8.59509966 13.3350337,6.99189141 15.9381948,6.99189141" id="Fill-10-Copy" transform="translate(16.241655, 10.738652) scale(-1, -1) translate(-16.241655, -10.738652) "></path>
                            <path d="M27.9267745,15.4464213 C28.6171738,15.4464213 29.5251716,15.1057141 29.8400378,14.8251017 L29.8400378,10.0974708 C29.5041137,9.87695326 28.6367276,9.55712646 27.7693414,9.55712646 C26.5058657,9.55712646 25.9152409,10.2777553 25.836023,11.5000234 C25.7969154,11.960411 25.7969154,12.9020667 25.836023,13.4429203 C25.9152409,14.745145 26.6447477,15.4464213 27.9267745,15.4464213 M27.5126352,6.99189141 C28.3018062,6.99189141 29.2479089,7.23278007 29.8400378,7.49302131 L29.8400378,4.84884811 C29.8400378,4.06710584 30.4316653,3.46666667 31.1611722,3.46666667 C31.9112355,3.46666667 32.4833093,4.06710584 32.4833093,4.84884811 L32.4833093,15.8268522 C32.4833093,16.2678873 32.3649838,16.5281285 32.0095059,16.7690172 C31.4569859,17.16931 29.8796468,18.0106378 27.8671104,18.0106378 C25.1260699,18.0106378 23.4103501,16.2877491 23.1932529,13.8442316 C23.1340901,13.1429553 23.1340901,11.8004976 23.1932529,11.0788502 C23.4103501,8.59509966 24.9094741,6.99189141 27.5126352,6.99189141" id="Fill-10-Copy-2" transform="translate(27.816095, 10.738652) scale(-1, -1) translate(-27.816095, -10.738652) "></path>
                            <path d="M41.3703599,8.05321856 C41.291142,6.81108866 40.6995145,6.09045979 39.4375428,6.09045979 C38.5696553,6.09045979 37.7022692,6.4102866 37.3673479,6.63080412 L37.3673479,11.3584351 C37.6827154,11.6390474 38.5696553,11.9797546 39.2806111,11.9797546 C40.5626379,11.9797546 41.2715882,11.2387546 41.3703599,9.9365299 C41.4104703,9.39516701 41.3899137,8.49374433 41.3703599,8.05321856 M44.01313,10.3775649 C43.7970356,12.8210825 42.080313,14.5439711 39.3392725,14.5439711 C37.3277389,14.5439711 35.7689508,13.6827814 35.1978798,13.2819794 C34.8424019,13.0416 34.7240764,12.7808495 34.7240764,12.3403237 L34.7240764,1.38218144 C34.7240764,0.600439175 35.2961501,0 36.0462135,0 C36.7747176,0 37.3673479,0.600439175 37.3673479,1.38218144 L37.3673479,4.02635464 C37.958474,3.7661134 38.9045767,3.52522474 39.6937477,3.52522474 C42.2979116,3.52522474 43.7774818,5.12843299 44.01313,7.61218351 C44.0722928,8.35369278 44.0722928,9.65540825 44.01313,10.3775649" id="Fill-16-Copy"></path>
                            <path d="M53.1667829,7.97479863 C53.1071187,6.83299656 52.3189505,6.03190172 51.0760313,6.03190172 C49.8336135,6.03190172 49.0644977,6.83299656 48.9647232,7.97479863 C48.9266184,8.51565223 48.9266184,9.4573079 48.9647232,9.97829966 C49.0644977,11.1195924 49.8336135,11.9211966 51.0760313,11.9211966 C52.3189505,11.9211966 53.087565,11.1195924 53.1667829,9.97829966 C53.2058905,9.4573079 53.2058905,8.51565223 53.1667829,7.97479863 M51.0760313,14.4854131 C48.4929254,14.4854131 46.5400531,12.8022481 46.3425097,10.4183162 C46.2828455,9.61773058 46.2828455,8.35522955 46.3425097,7.55362543 C46.5400531,5.14983162 48.4929254,3.46666667 51.0760313,3.46666667 C53.6791925,3.46666667 55.5924558,5.14983162 55.7889964,7.55362543 C55.849162,8.35522955 55.849162,9.59735945 55.7889964,10.3989636 C55.5924558,12.8022481 53.6791925,14.4854131 51.0760313,14.4854131" id="Fill-18-Copy"></path>
                            <path d="M65.9979922,10.9988935 C65.9979922,13.2432832 64.1639468,14.4854131 61.8761533,14.4854131 C60.0225541,14.4854131 58.8398004,13.9440502 58.1092908,13.3232399 C57.6359888,12.9224378 57.4981095,12.1610667 57.8731412,11.660446 C58.2667239,11.1190832 58.9375694,10.9988935 59.5878583,11.4200667 C60.2000424,11.8203595 61.0087671,12.0816192 61.9358174,12.0816192 C62.961138,12.0816192 63.43444,11.7001698 63.43444,11.1598254 C63.43444,10.7192997 63.1180697,10.4178069 62.2912953,10.2176605 C61.5803395,10.0577471 61.600896,10.0781182 60.8312789,9.87797182 C59.2148321,9.4573079 57.9523591,8.53551409 57.9523591,6.81262543 C57.9523591,4.64870172 59.6670762,3.46666667 61.9754263,3.46666667 C63.2178442,3.46666667 64.4988682,3.78751203 65.1902702,4.36808935 C65.7618426,4.84986667 65.722735,5.67082337 65.3085957,6.15158213 C64.9140102,6.5921079 64.2431648,6.65271203 63.5928759,6.31149553 C63.0799649,6.0512543 62.3895656,5.87096976 61.8761533,5.87096976 C60.8899402,5.87096976 60.4768037,6.25190997 60.4768037,6.73215945 C60.4768037,7.15282337 60.7716147,7.43343574 61.659056,7.63409141 L63.0604111,7.95391821 C65.0323357,8.43518625 65.9979922,9.41707491 65.9979922,10.9988935" id="Fill-20-Copy"></path>
                            <path d="M76.0725486,10.9988935 C76.0725486,13.2432832 74.2385032,14.4854131 71.9507096,14.4854131 C70.0961077,14.4854131 68.913354,13.9440502 68.1838472,13.3232399 C67.7095424,12.9224378 67.5726659,12.1610667 67.9466948,11.660446 C68.3412803,11.1190832 69.0121257,10.9988935 69.6624147,11.4200667 C70.273596,11.8203595 71.0833235,12.0816192 72.0098724,12.0816192 C73.0346916,12.0816192 73.5089964,11.7001698 73.5089964,11.1598254 C73.5089964,10.7192997 73.1926261,10.4178069 72.3648489,10.2176605 C71.6543945,10.0577471 71.674951,10.0781182 70.9048325,9.87797182 C69.2883857,9.4573079 68.0259127,8.53551409 68.0259127,6.81262543 C68.0259127,4.64870172 69.7406298,3.46666667 72.04898,3.46666667 C73.2913978,3.46666667 74.5744273,3.78751203 75.2638238,4.36808935 C75.8363989,4.84986667 75.7962886,5.67082337 75.3821493,6.15158213 C74.9875638,6.5921079 74.3167184,6.65271203 73.6664295,6.31149553 C73.1545213,6.0512543 72.4631192,5.87096976 71.9507096,5.87096976 C70.964998,5.87096976 70.5503573,6.25190997 70.5503573,6.73215945 C70.5503573,7.15282337 70.8461711,7.43343574 71.7336124,7.63409141 L73.1339647,7.95391821 C75.1058894,8.43518625 76.0725486,9.41707491 76.0725486,10.9988935" id="Fill-22-Copy"></path>
                        </g>
                    </g>
                </g>
            </g>
        </g>
    </g>
</svg>